# xmcd CD database file
#
# Track frame offsets:
#	150
#	18532
#	37917
#	55492
#	78195
#	96306
#	120846
#	139678
#	158698
#	180477
#	202315
#	220608
#	238124
#	249958
#
# Disc length: 3671 seconds
#
# Revision: 0
# Processed by: cddbd v1.5.2PL0 Copyright (c) Steve Scherf et al.
# Submitted via: CDex 1.51
#
DISCID=b30e550e
DTITLE=Didier Malherbe - Eric Löhrer - Nuit d'ombrelle - CD 1
DYEAR=2011
DGENRE=Jazz
TTITLE0=Dark shadows
TTITLE1=Cry me a river
TTITLE2=Let's cool one
TTITLE3=Round midnight
TTITLE4=Misterioso - Blue monk
TTITLE5=Bopwind
TTITLE6=St James infirmary - Eshkhemet
TTITLE7=Mood indigo
TTITLE8=We see
TTITLE9=Monk's mood
TTITLE10=Think of one
TTITLE11=Smoke gets in your eyes
TTITLE12=Kourouts blues
TTITLE13=I remember Cliford
EXTD=YEAR: 2011
EXTT0=
EXTT1=
EXTT2=
EXTT3=
EXTT4=
EXTT5=
EXTT6=
EXTT7=
EXTT8=
EXTT9=
EXTT10=
EXTT11=
EXTT12=
EXTT13=
PLAYORDER=
